<?xml version="1.0" encoding="utf-8"?>
<!-- Generator: Adobe Illustrator 21.0.2, SVG Export Plug-In . SVG Version: 6.00 Build 0)  -->
<svg version="1.1" id="design" xmlns="http://www.w3.org/2000/svg" xmlns:xlink="http://www.w3.org/1999/xlink" x="0px" y="0px"
	 width="136px" height="36px" viewBox="0 0 136 36" style="enable-background:new 0 0 136 36;" xml:space="preserve">
<style type="text/css">
	.st0{fill:#4F515B;}
	.st1{fill:#EB2227;}
	.st2{fill:#36AADB;}
	.st3{fill:#6D7FA4;}
	.st4{fill:#A5556D;}
	.st5{fill:#EA2228;}
</style>
<g id="PEOPLE-_POWERED_MEDICINE">
	<path class="st0" d="M63.4,0.9h3.7c2.2,0,3.6,1.1,3.6,3l0,0c0,2-1.6,3.1-3.7,3.1h-1.2v2.5h-2.4V0.9z M66.9,5.2
		c0.8,0,1.4-0.4,1.4-1.1l0,0c0-0.7-0.5-1.1-1.4-1.1h-1.1v2.3L66.9,5.2L66.9,5.2z"/>
	<path class="st0" d="M72.7,0.9h6.9v2H75v1.3h4.1v1.9H75v1.4h4.6v2h-7L72.7,0.9L72.7,0.9z"/>
	<path class="st0" d="M81.5,5.3L81.5,5.3c0-2.5,2-4.5,4.7-4.5s4.6,2,4.6,4.5l0,0c0,2.5-2,4.5-4.7,4.5S81.5,7.7,81.5,5.3z M88.4,5.3
		L88.4,5.3C88.4,4,87.5,3,86.2,3C84.9,2.9,84,4,84,5.2l0,0c0,1.2,0.9,2.3,2.2,2.3C87.5,7.6,88.4,6.5,88.4,5.3z"/>
	<path class="st0" d="M93.1,0.9h3.7c2.2,0,3.6,1.1,3.6,3l0,0c0,2-1.6,3.1-3.7,3.1h-1.2v2.5h-2.4V0.9L93.1,0.9z M96.6,5.2
		c0.8,0,1.4-0.4,1.4-1.1l0,0C98,3.4,97.5,3,96.6,3h-1.1v2.3L96.6,5.2L96.6,5.2z"/>
	<path class="st0" d="M102.3,0.9h2.4v6.5h4.2v2.1h-6.6V0.9z"/>
	<path class="st0" d="M110.9,0.9h6.9v2h-4.6v1.3h4.1v1.9h-4.1v1.4h4.6v2h-7L110.9,0.9L110.9,0.9z"/>
	<path class="st0" d="M119.8,4.7h4v2.1h-4V4.7z"/>
	<path class="st0" d="M63.4,13.7h3.7c2.2,0,3.6,1.1,3.6,3l0,0c0,2-1.6,3.1-3.7,3.1h-1.2v2.5h-2.4V13.7z M66.9,18
		c0.8,0,1.4-0.4,1.4-1.1l0,0c0-0.7-0.5-1.1-1.4-1.1h-1.1V18H66.9L66.9,18z"/>
	<path class="st0" d="M72.4,18L72.4,18c0-2.5,2-4.5,4.7-4.5s4.6,2,4.6,4.5l0,0c0,2.5-2,4.5-4.7,4.5S72.4,20.5,72.4,18z M79.2,18
		L79.2,18c0-1.3-0.9-2.3-2.2-2.3s-2.2,1.1-2.2,2.3l0,0c0,1.2,0.9,2.3,2.2,2.3C78.4,20.3,79.2,19.3,79.2,18z"/>
	<path class="st0" d="M82.8,13.7h2.5l1.5,5l1.7-5h2.1l1.7,5l1.5-5h2.5l-2.9,8.7h-2.1l-1.7-5l-1.7,5h-2.1L82.8,13.7z"/>
	<path class="st0" d="M98.2,13.7h6.9v2h-4.6V17h4.1v1.9h-4.1v1.4h4.6v2h-7L98.2,13.7L98.2,13.7z"/>
	<path class="st0" d="M107.4,13.7h4.1c1.3,0,2.2,0.3,2.8,0.9c0.5,0.5,0.8,1.2,0.8,2l0,0c0,1.3-0.7,2.2-1.8,2.6l2.1,3h-2.8l-1.7-2.6
		h-1v2.6h-2.4L107.4,13.7L107.4,13.7z M111.3,17.8c0.8,0,1.3-0.4,1.3-1l0,0c0-0.7-0.5-1-1.3-1h-1.6v2.1
		C109.8,17.8,111.3,17.8,111.3,17.8z"/>
	<path class="st0" d="M117.2,13.7h6.9v2h-4.6V17h4.1v1.9h-4.1v1.4h4.6v2h-7L117.2,13.7L117.2,13.7z"/>
	<path class="st0" d="M126.4,13.7h3.3c3.1,0,4.9,1.8,4.9,4.3l0,0c0,2.5-1.8,4.3-4.9,4.3h-3.3L126.4,13.7L126.4,13.7z M129.8,20.2
		c1.4,0,2.4-0.8,2.4-2.2l0,0c0-1.4-0.9-2.2-2.4-2.2h-1v4.4H129.8L129.8,20.2z"/>
	<path class="st0" d="M63.8,26.5h1.6l2.6,4.1l2.6-4.1h1.6v8.6h-1.5v-6.2L68,33l0,0l-2.7-4v6.2h-1.5L63.8,26.5L63.8,26.5z"/>
	<path class="st0" d="M75.4,26.5h6.4v1.4H77v2.2h4.3v1.4H77v2.3h4.9v1.4h-6.5V26.5z"/>
	<path class="st0" d="M84.7,26.5h3.2c2.7,0,4.6,1.9,4.6,4.3l0,0c0,2.4-1.9,4.3-4.6,4.3h-3.2V26.5z M87.9,33.7c1.8,0,3-1.2,3-2.9l0,0
		c0-1.7-1.2-2.9-3-2.9h-1.7v5.9h1.7V33.7z"/>
	<path class="st0" d="M95.4,26.5h1.5v8.6h-1.5V26.5z"/>
	<path class="st0" d="M99.8,30.8L99.8,30.8c0-2.5,1.8-4.5,4.4-4.5c1.6,0,2.5,0.6,3.4,1.3l-1,1.1c-0.7-0.6-1.4-1.1-2.4-1.1
		c-1.7,0-2.8,1.4-2.8,3l0,0c0,1.7,1.2,3.1,2.8,3.1c1.1,0,1.7-0.4,2.5-1.1l1,1c-0.9,0.9-1.9,1.5-3.5,1.5
		C101.7,35.3,99.8,33.3,99.8,30.8z"/>
	<path class="st0" d="M110.4,26.5h1.5v8.6h-1.5V26.5z"/>
	<path class="st0" d="M115.2,26.5h1.4l4.6,6v-6h1.5v8.6h-1.3l-4.8-6.1v6.1h-1.5L115.2,26.5L115.2,26.5z"/>
	<path class="st0" d="M125.9,26.5h6.4v1.4h-4.9v2.2h4.3v1.4h-4.3v2.3h4.9v1.4h-6.5v-8.7H125.9z"/>
</g>
<g id="battery_people">
	<path class="st1" d="M53,35.5H0.5V11H53v3.9h3.9v16.7H53V35.5z M1.8,34.1h49.8v-3.9h3.9V16.3h-3.9v-3.9H1.8V34.1z"/>
	<g>
		<g>
			<rect x="4.6" y="15.2" class="st2" width="8.4" height="16.1"/>
			<circle class="st2" cx="8.8" cy="4.7" r="4.2"/>
		</g>
		<g>
			<rect x="15.3" y="15.2" class="st3" width="8.4" height="16.1"/>
			<circle class="st3" cx="19.5" cy="4.7" r="4.2"/>
		</g>
		<g>
			<rect x="25.9" y="15.2" class="st4" width="8.4" height="16.1"/>
			<circle class="st4" cx="30.1" cy="4.7" r="4.2"/>
		</g>
		<g>
			<polygon class="st5" points="52.7,19.1 48.9,19.1 48.9,15.2 40.5,15.2 40.5,19.1 36.6,19.1 36.6,27.5 40.5,27.5 40.5,31.3 
				48.9,31.3 48.9,27.5 52.7,27.5 			"/>
			<circle class="st5" cx="44.7" cy="4.7" r="4.2"/>
		</g>
	</g>
</g>
</svg>
